<?xml version="1.0" encoding="UTF-8" standalone="no"?>
<!-- Created with Inkscape (http://www.inkscape.org/) -->

<svg
   xmlns:dc="http://purl.org/dc/elements/1.1/"
   xmlns:cc="http://creativecommons.org/ns#"
   xmlns:rdf="http://www.w3.org/1999/02/22-rdf-syntax-ns#"
   xmlns:svg="http://www.w3.org/2000/svg"
   xmlns="http://www.w3.org/2000/svg"
   xmlns:sodipodi="http://sodipodi.sourceforge.net/DTD/sodipodi-0.dtd"
   xmlns:inkscape="http://www.inkscape.org/namespaces/inkscape"
   version="1.1"
   id="svg249"
   width="450"
   height="450"
   viewBox="0 0 450 450"
   sodipodi:docname="logo.svg"
   inkscape:version="0.92.4 5da689c313, 2019-01-14">
  <metadata
     id="metadata255">
    <rdf:RDF>
      <cc:Work
         rdf:about="">
        <dc:format>image/svg+xml</dc:format>
        <dc:type
           rdf:resource="http://purl.org/dc/dcmitype/StillImage" />
        <dc:title />
      </cc:Work>
    </rdf:RDF>
  </metadata>
  <defs
     id="defs253" />
  <sodipodi:namedview
     pagecolor="#ffffff"
     bordercolor="#666666"
     borderopacity="1"
     objecttolerance="10"
     gridtolerance="10"
     guidetolerance="10"
     inkscape:pageopacity="0"
     inkscape:pageshadow="2"
     inkscape:window-width="3840"
     inkscape:window-height="2124"
     id="namedview251"
     showgrid="false"
     inkscape:zoom="2.9667058"
     inkscape:cx="122.45131"
     inkscape:cy="147.82899"
     inkscape:window-x="0"
     inkscape:window-y="36"
     inkscape:window-maximized="1"
     inkscape:current-layer="svg249"
     showguides="true"
     inkscape:guide-bbox="true">
    <sodipodi:guide
       position="223.81727,132.13309"
       orientation="1,0"
       id="guide4523"
       inkscape:locked="false" />
  </sodipodi:namedview>
  <g
     id="g3962"
     transform="translate(3.9438587e-6,0.33707422)">
    <path
       style="fill:#fefefe"
       d="M 180,435 V 420 H 150 120 V 405 390 H 75 30 V 330 270 H 15 0 V 225 180 H 15 30 V 120 60 h 45 45 V 45 30 h 30 30 V 15 0 h 45 45 v 15 15 h 30 30 v 15 15 h 45 45 v 60 60 h 15 15 v 45 45 h -15 -15 v 60 60 h -45 -45 v 15 15 h -30 -30 v 15 15 h -45 -45 z"
       id="path3966"
       inkscape:connector-curvature="0" />
    <path
       style="fill:#0076a5"
       d="M 180,435 V 420 H 150 120 V 405 390 H 75 30 V 330 270 H 15 0 V 225 180 H 15 30 V 120 60 h 45 45 V 45 30 h 30 30 V 15 0 h 45 45 v 15 15 h 30 30 v 15 15 h 45 45 v 60 60 h 15 15 v 45 45 h -15 -15 v 60 60 h -45 -45 v 15 15 h -30 -30 v 15 15 h -45 -45 z m 0,-60 v -15 h 15 15 v -15 -15 h 15 15 v 15 15 h 15 15 v 15 15 h 15 15 v -15 -15 h -15 -15 v -15 -15 h -15 -15 v -30 -30 h 15 15 v 15 15 h 15 15 v 15 15 h 30 30 v 15 15 h 15 15 v -15 -15 h -15 -15 v -15 -15 h -30 -30 v -30 -30 h 15 15 v 15 15 h 30 30 v -15 -15 h 15 15 v -15 -15 h -15 -15 v 15 15 h -30 -30 v -15 -15 h 15 15 v -30 -30 h -15 -15 v -15 -15 h -15 -15 v 15 15 h 15 15 v 15 15 h -15 -15 v 15 15 h -15 -15 v -15 -15 h -15 -15 v -15 -15 h 15 15 V 105 60 h -45 -45 v 45 45 h 15 15 v 15 15 h -15 -15 v 15 15 h -15 -15 v -15 -15 h -15 -15 v -15 -15 h 15 15 v -15 -15 h -15 -15 v 15 15 H 105 90 v 30 30 h 15 15 v 15 15 H 90 60 V 225 210 H 45 30 v 15 15 h 15 15 v 15 15 h 30 30 v -15 -15 h 15 15 v 30 30 H 120 90 v 15 15 H 75 60 v 15 15 h 15 15 v -15 -15 h 30 30 v -15 -15 h 15 15 v -15 -15 h 15 15 v 30 30 h -15 -15 v 15 15 h -15 -15 v 15 15 h 15 15 z"
       id="path3964"
       inkscape:connector-curvature="0" />
  </g>
  <text
     xml:space="preserve"
     style="font-style:normal;font-variant:normal;font-weight:normal;font-stretch:normal;font-size:80px;line-height:1.25;font-family:sans-serif;-inkscape-font-specification:'sans-serif, Normal';font-variant-ligatures:normal;font-variant-caps:normal;font-variant-numeric:normal;font-feature-settings:normal;text-align:start;letter-spacing:0px;word-spacing:0px;writing-mode:lr-tb;text-anchor:start;fill:#0076a5;fill-opacity:1;stroke:none"
     x="-5.4156213"
     y="528.20117"
     id="text3716"><tspan
       sodipodi:role="line"
       id="tspan3714"
       x="-5.4156213"
       y="528.20117"
       style="font-style:normal;font-variant:normal;font-weight:600;font-stretch:normal;font-size:94.66666412px;font-family:Ubuntu;-inkscape-font-specification:'Ubuntu, Semi-Bold';font-variant-ligatures:normal;font-variant-caps:normal;font-variant-numeric:normal;font-feature-settings:normal;text-align:start;letter-spacing:8px;writing-mode:lr-tb;text-anchor:start;fill:#0076a5;fill-opacity:1">Flexkube</tspan></text>
</svg>
