<?xml version="1.0" standalone="no"?>
<!DOCTYPE svg PUBLIC "-//W3C//DTD SVG 20010904//EN"
 "http://www.w3.org/TR/2001/REC-SVG-20010904/DTD/svg10.dtd">
<svg version="1.0" xmlns="http://www.w3.org/2000/svg"
 width="700.000000pt" height="700.000000pt" viewBox="0 0 700.000000 700.000000"
 preserveAspectRatio="xMidYMid meet">
<metadata>
Created by potrace 1.11, written by Peter Selinger 2001-2013
</metadata>
<g transform="translate(0.000000,700.000000) scale(0.100000,-0.100000)"
fill="#000000" stroke="none">
<path d="M2800 6765 l0 -235 -465 0 -465 0 -2 -232 -3 -233 -698 -3 -697 -2 0
-930 0 -930 -235 0 -235 0 0 -705 0 -705 235 0 235 0 0 -930 0 -930 697 -2
698 -3 3 -232 2 -233 465 0 465 0 0 -230 0 -230 700 0 700 0 0 230 0 230 465
0 465 0 2 233 3 232 698 3 697 2 0 930 0 930 235 0 235 0 0 705 0 705 -235 0
-235 0 0 930 0 930 -697 2 -698 3 -3 233 -2 232 -465 0 -465 0 0 235 0 235
-700 0 -700 0 0 -235z m1400 -1405 l0 -700 -235 0 -235 0 2 -232 3 -233 233
-3 232 -2 0 -230 0 -230 235 0 235 0 0 230 0 230 230 0 230 0 0 235 0 235
-230 0 -230 0 0 235 0 235 230 0 230 0 0 -235 0 -235 235 0 235 0 0 -465 0
-465 -235 0 -235 0 0 -235 0 -235 470 0 470 0 0 235 0 235 230 0 230 0 0 -235
0 -235 -230 0 -230 0 0 -230 0 -230 -470 0 -470 0 0 230 0 230 -230 0 -230 0
0 -465 0 -465 465 0 465 0 0 -235 0 -235 235 0 235 0 0 -230 0 -230 -235 0
-235 0 0 230 0 230 -465 0 -465 0 0 235 0 235 -235 0 -235 0 0 235 0 235 -232
-2 -233 -3 -3 -468 -2 -467 235 0 235 0 0 -230 0 -230 -235 0 -235 0 0 230 0
230 -230 0 -230 0 0 -230 0 -230 -235 0 -235 0 0 230 0 230 235 0 235 0 -2
467 -3 468 -232 3 -233 2 0 -235 0 -235 -235 0 -235 0 0 -235 0 -235 -465 0
-465 0 0 -230 0 -230 -235 0 -235 0 0 230 0 230 235 0 235 0 0 235 0 235 465
0 465 0 0 465 0 465 -230 0 -230 0 0 -230 0 -230 -470 0 -470 0 0 230 0 230
-230 0 -230 0 0 235 0 235 230 0 230 0 0 -235 0 -235 470 0 470 0 0 235 0 235
-235 0 -235 0 0 465 0 465 235 0 235 0 0 235 0 235 230 0 230 0 0 -235 0 -235
-230 0 -230 0 0 -235 0 -235 230 0 230 0 0 -230 0 -230 235 0 235 0 0 230 0
230 233 2 232 3 3 233 2 232 -235 0 -235 0 0 700 0 700 700 0 700 0 0 -700z
m-1400 -4200 l0 -230 -235 0 -235 0 0 230 0 230 235 0 235 0 0 -230z m1870 0
l0 -230 -235 0 -235 0 0 230 0 230 235 0 235 0 0 -230z"/>
</g>
</svg>
